{"title":"Swamp Shark-AC3-XviD-DVDRip 2011 TBS","uid":6357814,"size":1567105071,"categoryP":"video","categoryS":"movies","magnet":"?xt=urn:btih:a5fb9da1ac71ed7e2e06743675a526039cab5853&amp;dn=Swamp+Shark-AC3-XviD-DVDRip+2011+TBS&amp;tr=udp%3A%2F%2Ftracker.openbittorrent.com%3A80&amp;tr=udp%3A%2F%2Fopen.demonii.com%3A1337&amp;tr=udp%3A%2F%2Ftracker.coppersurfer.tk%3A6969&amp;tr=udp%3A%2F%2Fexodus.desync.com%3A6969","seeders":0,"leechers":1,"uploader":"FatFreddy30","files":-1,"time":1304206283,"description":"Open on gorgeous swamplands of the Atchafalaya Basin in the summer. Lots of beautiful teens are at the beach the weekend before Gator Fest... \n &lt;a href=&quot;\nhttp://www.imdb.com/title/tt1684927/&quot; rel=&quot;nofollow&quot; target=&quot;_NEW&quot;&gt;\nhttp://www.imdb.com/title/tt1684927/&lt;/a&gt;\n\nSubs: Dutch.\n\nDe film speelt zich af in de mooie moerassen van Atchafalaya Basin tijdens de zomer. Veel mooie tieners liggen in het weekend aan het strand voor het 'Gator Fest' begint. Die nacht loopt een dierensmokkel gruwelijk uit de hand en ontsnapt er een groot zeedier de afgelegen riviertjes in. Bij het restaurant van McDaniel wordt de lokale dronkenlap Jackson doodgebeten teruggevonden. De sheriff beschuldigt de ontsnapte alligators van McDaniel ervan en probeert hem in de gevangenis te krijgen. Rachel McDaniel, het hoofd van de familie, beweert echter dat zij de vin van een haai boven het water heeft zien uitkomen. Samen met de hulp van haar familie en de mysterieuze vreemdeling Charlie besluit ze het wezen een bezoekje te brengen om de naam van haar familie te zuiveren en het 'Gator Fest' toch te kunnen laten doorgaan...\n &lt;a href=&quot;\nhttp://www.moviemeter.nl/film/68636&quot; rel=&quot;nofollow&quot; target=&quot;_NEW&quot;&gt;\nhttp://www.moviemeter.nl/film/68636&lt;/a&gt;\n\nSubs: Nederlands.\n\nGeneral\nComplete name                    : Swamp Shark-AC3-XviD-DVDRip 2011.avi\nFormat                           : AVI\nFormat/Info                      : Audio Video Interleave\nFile size                        : 1.46 GiB\nDuration                         : 1h 25mn\nOverall bit rate                 : 2 451 Kbps\nWriting application              : VirtualDubMod 1.5.4.1 (build 2178/release)\nWriting library                  : VirtualDubMod build 2178/release\nSource                           : Pal Retail 2011\n\nVideo\nID                               : 0\nFormat                           : MPEG-4 Visual\nFormat profile                   : Simple@L3\nFormat settings, BVOP            : No\nFormat settings, QPel            : No\nFormat settings, GMC             : No warppoints\nFormat settings, Matrix          : Default (H.263)\nCodec ID                         : XVID\nCodec ID/Hint                    : XviD\nDuration                         : 1h 25mn\nBit rate                         : 1 993 Kbps\nWidth                            : 720 pixels\nHeight                           : 400 pixels\nDisplay aspect ratio             : 16:9\nFrame rate                       : 25.000 fps\nResolution                       : 8 bits\nColorimetry                      : 4:2:0\nScan type                        : Progressive\nBits/(Pixel*Frame)               : 0.277\nStream size                      : 1.19 GiB (81%)\nWriting library                  : XviD 1.1.2 (UTC 2006-11-01)\n\nAudio\nID                               : 1\nFormat                           : AC-3\nFormat/Info                      : Audio Coding 3\nCodec ID                         : 2000\nDuration                         : 1h 25mn\nBit rate mode                    : Constant\nBit rate                         : 448 Kbps\nChannel(s)                       : 6 channels\nChannel positions                : Front: L C R, Surround: L R, LFE\nSampling rate                    : 48.0 KHz\nStream size                      : 273 MiB (18%)\nAlignment                        : Split accross interleaves\nInterleave, duration             : 40 ms (1.00 video frame)\nInterleave, preload duration     : 500 ms\n\nThanks to Drental.\n\nEnjoy...\n\nTBS.","torrent":{"xt":"urn:btih:a5fb9da1ac71ed7e2e06743675a526039cab5853","amp;dn":"Swamp+Shark-AC3-XviD-DVDRip+2011+TBS","amp;tr":["udp%3A%2F%2Ftracker.openbittorrent.com%3A80","udp%3A%2F%2Fopen.demonii.com%3A1337","udp%3A%2F%2Ftracker.coppersurfer.tk%3A6969","udp%3A%2F%2Fexodus.desync.com%3A6969"],"infoHash":"a5fb9da1ac71ed7e2e06743675a526039cab5853","infoHashBuffer":{"type":"Buffer","data":[165,251,157,161,172,113,237,126,46,6,116,54,117,165,38,3,156,171,88,83]},"announce":[],"urlList":[]}}